<mxfile host="app.diagrams.net" modified="2024-11-12T14:11:55.828Z" agent="Mozilla/5.0 (Windows NT 10.0; Win64; x64) AppleWebKit/537.36 (KHTML, like Gecko) Chrome/130.0.0.0 Safari/537.36" etag="Z7cyk4iDu2IUOZqEssKG" version="24.0.7" type="device">
  <diagram id="C5RBs43oDa-KdzZeNtuy" name="Page-1">
    <mxGraphModel dx="1080" dy="476" grid="0" gridSize="10" guides="1" tooltips="1" connect="1" arrows="1" fold="1" page="1" pageScale="1" pageWidth="827" pageHeight="1169" math="0" shadow="0">
      <root>
        <mxCell id="WIyWlLk6GJQsqaUBKTNV-0" />
        <mxCell id="WIyWlLk6GJQsqaUBKTNV-1" parent="WIyWlLk6GJQsqaUBKTNV-0" />
        <mxCell id="rqU5lwcWEOT0aZwr3SFZ-14" style="edgeStyle=orthogonalEdgeStyle;rounded=0;orthogonalLoop=1;jettySize=auto;html=1;exitX=1;exitY=0.5;exitDx=0;exitDy=0;entryX=0;entryY=0.5;entryDx=0;entryDy=0;" edge="1" parent="WIyWlLk6GJQsqaUBKTNV-1" source="rqU5lwcWEOT0aZwr3SFZ-9" target="rqU5lwcWEOT0aZwr3SFZ-10">
          <mxGeometry relative="1" as="geometry" />
        </mxCell>
        <mxCell id="rqU5lwcWEOT0aZwr3SFZ-9" value="&lt;b&gt;Read contents from test file&lt;/b&gt;" style="rounded=1;whiteSpace=wrap;html=1;fillColor=#FFCC99;" vertex="1" parent="WIyWlLk6GJQsqaUBKTNV-1">
          <mxGeometry x="40" y="160" width="120" height="60" as="geometry" />
        </mxCell>
        <mxCell id="rqU5lwcWEOT0aZwr3SFZ-10" value="&lt;b&gt;Construct matrices from&amp;nbsp;&lt;span style=&quot;background-color: initial;&quot;&gt;read buffer&lt;/span&gt;&lt;/b&gt;" style="rounded=1;whiteSpace=wrap;html=1;fillColor=#FFFF99;" vertex="1" parent="WIyWlLk6GJQsqaUBKTNV-1">
          <mxGeometry x="200" y="160" width="120" height="60" as="geometry" />
        </mxCell>
        <mxCell id="rqU5lwcWEOT0aZwr3SFZ-19" style="edgeStyle=orthogonalEdgeStyle;rounded=0;orthogonalLoop=1;jettySize=auto;html=1;entryX=0;entryY=0.5;entryDx=0;entryDy=0;" edge="1" parent="WIyWlLk6GJQsqaUBKTNV-1" source="rqU5lwcWEOT0aZwr3SFZ-11" target="rqU5lwcWEOT0aZwr3SFZ-13">
          <mxGeometry relative="1" as="geometry" />
        </mxCell>
        <mxCell id="rqU5lwcWEOT0aZwr3SFZ-20" value="" style="edgeStyle=orthogonalEdgeStyle;rounded=0;orthogonalLoop=1;jettySize=auto;html=1;" edge="1" parent="WIyWlLk6GJQsqaUBKTNV-1" source="rqU5lwcWEOT0aZwr3SFZ-11" target="rqU5lwcWEOT0aZwr3SFZ-13">
          <mxGeometry relative="1" as="geometry" />
        </mxCell>
        <mxCell id="rqU5lwcWEOT0aZwr3SFZ-11" value="&lt;b&gt;Construct write buffer from the result matrix&lt;/b&gt;" style="rounded=1;whiteSpace=wrap;html=1;fillColor=#CCFF99;" vertex="1" parent="WIyWlLk6GJQsqaUBKTNV-1">
          <mxGeometry x="520" y="160" width="120" height="60" as="geometry" />
        </mxCell>
        <mxCell id="rqU5lwcWEOT0aZwr3SFZ-18" style="edgeStyle=orthogonalEdgeStyle;rounded=0;orthogonalLoop=1;jettySize=auto;html=1;entryX=0;entryY=0.5;entryDx=0;entryDy=0;" edge="1" parent="WIyWlLk6GJQsqaUBKTNV-1" source="rqU5lwcWEOT0aZwr3SFZ-12" target="rqU5lwcWEOT0aZwr3SFZ-11">
          <mxGeometry relative="1" as="geometry" />
        </mxCell>
        <mxCell id="rqU5lwcWEOT0aZwr3SFZ-12" value="&lt;b&gt;Covolve contructed matrices&lt;/b&gt;" style="rounded=1;whiteSpace=wrap;html=1;fillColor=#E6FFCC;" vertex="1" parent="WIyWlLk6GJQsqaUBKTNV-1">
          <mxGeometry x="360" y="160" width="120" height="60" as="geometry" />
        </mxCell>
        <mxCell id="rqU5lwcWEOT0aZwr3SFZ-13" value="&lt;b&gt;Write the buffer to destination&lt;/b&gt;" style="rounded=1;whiteSpace=wrap;html=1;fillColor=#66FF66;" vertex="1" parent="WIyWlLk6GJQsqaUBKTNV-1">
          <mxGeometry x="680" y="160" width="120" height="60" as="geometry" />
        </mxCell>
        <mxCell id="rqU5lwcWEOT0aZwr3SFZ-15" style="edgeStyle=orthogonalEdgeStyle;rounded=0;orthogonalLoop=1;jettySize=auto;html=1;exitX=1;exitY=0.5;exitDx=0;exitDy=0;entryX=0;entryY=0.5;entryDx=0;entryDy=0;" edge="1" parent="WIyWlLk6GJQsqaUBKTNV-1" source="rqU5lwcWEOT0aZwr3SFZ-10" target="rqU5lwcWEOT0aZwr3SFZ-12">
          <mxGeometry relative="1" as="geometry" />
        </mxCell>
      </root>
    </mxGraphModel>
  </diagram>
</mxfile>
